<?xml version="1.0" encoding="utf-8"?>
<svg version="1.1" xmlns="http://www.w3.org/2000/svg" xmlns:xlink="http://www.w3.org/1999/xlink" x="0px" y="0px"
   viewBox="0 0 1280 800" style="enable-background:new 0 0 1280 800;" xml:space="preserve">
  <!-- sky -->
  <g class="sky">
    <rect width="1280" height="800"/>
  </g>
  <!-- sun -->
  <g class="sun" style="fill: url('#sunGradient')">
    <radialGradient id="sunGradient" cx="655.1558" cy="309.6623" r="97.1039" gradientUnits="userSpaceOnUse">
      <stop id="sunGradientCenter" offset="0"/>
      <stop id="sunGradientEdge" offset="1" />
    </radialGradient>
    <circle cx="655.2" cy="309.7" r="97.1"/>
  </g>
  <!-- far layer -->
  <g class="layer2">
    <g class="mountains">
      <path d="M-0.7,347.2c28.9-14.3,52.3-36.4,60.1-41.6c7.8-5.2,44.2,26,50.6,20.8s28.6-20.5,28.6-20.5
        l31.2,10.1l18.2-3.6l27.3-18.2l48.1-36.4c0,0,14.3,13,18.2,14.3c3.9,1.3,31.2,14,31.2,14s40.4,21.8,53.2,15.6
        c15.2-7.4,30.5-22.6,42.9-29.9c9.9-5.8,20.8-14,24.9-8.1c23.2,32.8,52.4-6.3,60.8,2.9c0,0,15.6,11.3,26,15.4
        c10.4,4.1,19.8,9.9,36.4,6.7c8.9-1.7,57.9-35.2,59.7-30.9c5.4,12.5,36.4,20.3,44.2,30.9c7.8,10.6,26,0,41.6,2.6
        c15.6,2.6,42.9-23.4,42.9-23.4s27.3,24.5,31.2,23.4c2.1-0.6,14.4-7.7,25.2-14c8.1-4.7,18.3-1.6,22.7,6.6c1.6,2.9,3.4,5.1,5.4,5.1
        c6.5,0,28.6-9.3,28.6-9.3l8.9-8.1c4.3-3.9,10.9-3.7,14.9,0.4c7.9,8.1,20.9,19.1,29.4,15.7c13-5.2,29.9,0,36.4,0
        c6.5,0,53.2,30.9,62.3,27c9.1-3.9,62,22.8,71.4,19.5c15.2-5.3,33.8-24.7,50.7-23.4c16.9,1.3,25.1-18.7,45.5-27.3
        c5.9-2.5,34.5,12.5,58.4,11.7c11.5-0.4,45.2,2.6,45.2,2.6l-1.9,502.1L-1.2,799.5L-0.7,347.2z"/>
    </g>
    <g class="clouds">
      <g>
        <path d="M9.8,142.6c-4.2-8.7-4.3-19.2-0.3-28s12-15.6,21.3-18.2c2-9,8.2-17,16.5-21
          c5.3-2.6,32.3-9.1,49.3,30.2c1.6,3.7,8.7,15,11.7,17.7c1.7,1.5,23.6,10.7,25.7,11.7c11.2,5.2,26.7,0.7,36,12.3
          c18,4.7,35.2-10.6,49.4,0c1.3,1,2.7,2.1,4.2,2.7c2.3,0.9,4.8,0.6,7.2,0.5c15.4-1,31,2.7,44.3,10.4c2.6,1.5,5.2,3.2,8.2,4
          c2.8,0.8,5.8,0.7,8.6,1.4c3.6,0.9,7.2,3.5,6.4,7.8c-0.3,1.3-1,2.6-2,3.5c-2.8,2.6-6.6,3-10.2,3c-16.1,0.2-32.6,0.6-48.7,0.1
          c-16.6-0.5-30.4,0.1-47-0.1c-11.2-0.1-30.4,0.3-41.7,0c-38.6-1-65.3-1.6-99-3c-8.3-0.3-15.9-0.1-24.1-1.5
          c-8.2-1.4-16.3-5.6-20.4-12.7c-4.1-7.2-2.9-17.6,4-22.2"/>
        <path d="M854.5,124.3c0.5-9.5,9.6-16.7,18.9-18.8s18.9-0.3,28.3,1.5c-1.2-11.6,10.6-20.7,22.1-22.7
          s23.3,0.5,34.8-0.9c16-1.9,27.2-31.8,43.4-31.3c2.5,0.1,14.3,5.4,24.3,10c9.1,4.2,19.5,4.5,28.8,0.8c8-3.2,17.3-6.3,21.5-5.4
          c16.4,3.7,22.8,19.4,39.2,23.1c4.5,1,9.4,2.3,12.2,5.9c2,2.6,2,6.7,0.3,9.2c-0.6,0.8-0.1,1.9,0.9,2c14.7,0.4,28.8,6.5,42.3,12.6
          c14.6,6.5,29.2,13.1,43.8,19.6c3.7,1.6,7.8,3.7,8.1,8.2c0.2,2.7-1.2,5.3-3.3,7c-4.4,3.4-10,3-15.2,2.6
          c-63.2-4.9-126.9-4.2-190,1.9c-6.9,0.7-18.2,0.7-25.1,0.1c-16.9-1.4-46.8-1.5-61.1-1.8C900.6,147.3,853.3,148.8,854.5,124.3z"/>
      </g>
    </g>
  </g>
  <!-- mid layer -->
  <g class="layer1">
    <g class="mountains">
      <path d="M-0.7,375.8c12.8-6.5,71.2-42.9,76.4-48.1c5.2-5.2,51.9-44.2,51.9-44.2s11.8,22.7,24,26.6
        s51.3,16.3,64.3,19.5c13,3.2,120.7-19.9,121.3-19.3c0.6,0.6,15.1-21.6,22.9-26.8c7.8-5.2,45.9-32.3,59.7-26.1
        c13.8,6.3,39,46.9,54.5,45.6s45.5-2.6,46.8,3.9c1.3,6.5,32.5,4.2,40.3,9.2c7.8,5.1,57.3-16.1,62.3-20.2c5-4.1,63.6-39.4,63.6-39.4
        s29.9,59.7,29.9,59.6c0-0.1,26,51.8,33.8,51.8c7.8,0,61-89.6,61-89.6s15.6-17.7,27.3-21.8c11.7-4.2,27.3-4.4,27.3,0.9
        c0,5.3,19.5,36.5,22.1,46.9s23.4,10.2,45.5,10.3c22.1,0.1,41.6-45.3,48.1-47.9c6.5-2.6,80.5-15.8,88.3-9.2
        c7.8,6.6,16.9,14.4,24.7,19.6c7.8,5.2,8.3,11.5,23,15.5c14.7,4,22.5,6.6,38.1,10.5c15.6,3.9,9.1,6.3,42.9,11.6s40.7-19.9,58.5-18.6
        c17.8,1.3,22.5-28.1,22.5-28.1l-0.7,532L-1.2,799.5L-0.7,375.8z"/>
    </g>
  </g>
  <!-- nearest layer -->
  <g class="layer0">
    <g class="mountains">
      <path d="M1278.5,308.9c11.9,4.2-8.5,8.5-44.5-20.3c-14-11.2-55-40.4-65.4-34.1
        c-10.4,6.3-75.6,56.9-90,61c-14.3,4.1-50.9,30.1-70.4,23.7c-19.6-6.3-121.3-8.9-144.8-23.8c-23.5-14.9-65.2-83.8-73-81.3
        c-7.8,2.5-31.3,43-44.3,46.8c-13,3.8-32.6-2.5-32.6-2.5s-22.2-22.8-26.1-22.8c-3.9,0-33.9,16.5-41.7,21.5s-54.8,43-65.2,54.4
        c-10.4,11.4-60.2,43.8-72.3,41.8c-36.1-6.2-30.7-2.5-59.4-10.1c-28.7-7.6-66.5-35.4-90-40.5c-23.5-5.1-67.8-74.7-67.8-74.7
        s0,0-7.8-3.8c-7.8-3.8-31.3-25.3-40.4-22.8c-9,2.5-70.9,70.8-87.4,105.5c-5.4,11.5-8.7,18.6-25,26.1c-6.2,2.8-22.8,10.5-28.7,13.9
        l-23.6,5.1l-79.8,37.5V800h1280.5L1278.5,308.9z"/>
    </g>
  </g>
  </svg>
